<svg xmlns="http://www.w3.org/2000/svg" xmlns:xlink="http://www.w3.org/1999/xlink" width="800" zoomAndPan="magnify" viewBox="0 0 600 449.999984" height="600" preserveAspectRatio="xMidYMid meet" version="1.0"><path stroke-linecap="butt" transform="matrix(2.507143, 0, 0, 2.50689, 36.825008, -24.343473)" fill-opacity="1" fill="#009100" fill-rule="nonzero" stroke-linejoin="miter" d="M 139.127193 137.78734 C 139.127193 137.78734 123.694721 163.006899 90.717065 163.006899 C 89.729262 162.760702 99.515365 153.307068 101.497203 144.37855 C 103.494621 135.379912 100.180652 132.179358 100.180652 132.179358 C 100.180652 132.179358 109.653587 132.140403 112.224367 132.677984 L 123.891035 135.878538 L 133.666232 136.765157 Z M 139.127193 137.78734 " stroke="#000000" stroke-width="0.8" stroke-opacity="1" stroke-miterlimit="4"/><path stroke-linecap="butt" transform="matrix(2.507143, 0, 0, 2.50689, 36.825008, -24.343473)" fill-opacity="1" fill="#009100" fill-rule="nonzero" stroke-linejoin="miter" d="M 137.594073 52.665682 C 137.594073 52.665682 127.49636 34.529727 94.520261 34.529727 C 93.532458 34.775923 103.317004 44.229557 105.298841 53.159633 C 107.297818 62.156713 101.649892 71.011995 101.649892 71.011995 C 101.649892 71.011995 113.455226 65.396222 116.026006 64.858641 L 127.692674 61.658087 L 137.467871 60.771468 Z M 137.594073 52.665682 " stroke="#000000" stroke-width="0.8" stroke-opacity="1" stroke-miterlimit="4"/><path stroke-linecap="butt" transform="matrix(2.507143, 0, 0, 2.50689, 36.825008, -24.343473)" fill-opacity="1" fill="#b8ff63" fill-rule="nonzero" stroke-linejoin="miter" d="M 25.528311 89.682415 L 38.587875 114.615264 L 24.043491 140.143347 C 24.043491 140.143347 46.00886 134.80026 51.05538 121.145704 C 56.101899 107.491148 99.736608 134.80026 111.906526 137.472583 C 118.98474 139.026114 145.245649 140.573412 166.271515 131.429861 C 181.392377 124.854233 187.27401 107.824604 187.895672 98.88362 C 189.079789 81.818152 175.132138 60.592274 148.713866 60.592274 C 137.966446 60.592274 115.229843 61.457078 100.052892 72.314655 C 77.919253 88.147583 61.981974 115.716915 51.945025 103.039354 C 35.026176 81.667006 25.528311 89.682415 25.528311 89.682415 Z M 25.528311 89.682415 " stroke="#000000" stroke-width="0.8" stroke-opacity="1" stroke-miterlimit="4"/><path stroke-linecap="butt" transform="matrix(2.507143, 0, 0, 2.50689, 36.825008, -24.343473)" fill-opacity="1" fill="#ffffff" fill-rule="nonzero" stroke-linejoin="miter" d="M 179.017911 77.808888 C 179.017911 78.265443 179.007004 78.721997 178.983634 79.176993 C 178.961821 79.633547 178.927544 80.088543 178.883919 80.543539 C 178.838735 80.998535 178.782645 81.451973 178.715649 81.903853 C 178.648653 82.354174 178.570751 82.804496 178.481942 83.253259 C 178.393133 83.700464 178.293418 84.146111 178.182797 84.588641 C 178.070617 85.03273 177.949089 85.472144 177.816655 85.908441 C 177.684221 86.346297 177.540881 86.779478 177.388192 87.209543 C 177.233945 87.639608 177.07035 88.066556 176.895849 88.487272 C 176.721347 88.909545 176.535939 89.327145 176.341183 89.740069 C 176.144869 90.152994 175.940765 90.561243 175.725754 90.963261 C 175.510743 91.366836 175.284826 91.764178 175.051119 92.155288 C 174.815854 92.547956 174.572798 92.932832 174.318836 93.313035 C 174.064874 93.693237 173.803122 94.067206 173.530464 94.433385 C 173.259363 94.801121 172.977356 95.161067 172.689117 95.513221 C 172.39932 95.866934 172.101733 96.212855 171.794797 96.550986 C 171.487862 96.890675 171.173136 97.221014 170.85062 97.543563 C 170.528104 97.86767 170.197798 98.182427 169.859701 98.489394 C 169.521605 98.79636 169.175718 99.093978 168.823599 99.385362 C 168.469922 99.675188 168.110012 99.955665 167.743871 100.228351 C 167.37773 100.501037 167.003798 100.764374 166.625192 101.018362 C 166.245028 101.272349 165.86019 101.516987 165.467562 101.752276 C 165.076492 101.986007 164.679189 102.211947 164.277213 102.428538 C 163.875236 102.64357 163.467028 102.849253 163.054145 103.044029 C 162.641262 103.240363 162.225263 103.425789 161.803032 103.601867 C 161.380801 103.776386 160.955453 103.941555 160.525432 104.095818 C 160.095411 104.25008 159.662273 104.393435 159.226019 104.525882 C 158.788208 104.659888 158.348838 104.781428 157.906352 104.893619 C 157.462308 105.004252 157.018265 105.105535 156.569547 105.194353 C 156.122387 105.284729 155.672111 105.362639 155.220276 105.4312 C 154.768442 105.498203 154.316608 105.554298 153.861658 105.599486 C 153.406708 105.646232 152.951758 105.678955 152.495249 105.702328 C 152.038741 105.725701 151.583791 105.738166 151.125725 105.738166 C 150.669217 105.738166 150.212708 105.728817 149.757758 105.707002 C 149.30125 105.685187 148.8463 105.652465 148.391349 105.607277 C 147.936399 105.563647 147.483007 105.50911 147.031173 105.442107 C 146.579339 105.375105 146.129063 105.298752 145.681903 105.209935 C 145.233185 105.121117 144.787583 105.02295 144.345097 104.912317 C 143.901053 104.801685 143.461684 104.680145 143.023872 104.549256 C 142.587618 104.416808 142.152923 104.275011 141.722901 104.120749 C 141.29288 103.968045 140.865975 103.804433 140.443744 103.629914 C 140.021512 103.456953 139.603955 103.271527 139.191073 103.078309 C 138.77819 102.883534 138.369981 102.677851 137.966446 102.464376 C 137.562912 102.249344 137.165609 102.024962 136.772981 101.791232 C 136.381911 101.557501 135.995515 101.312862 135.615351 101.060433 C 135.235187 100.808004 134.861255 100.544667 134.493556 100.273539 C 134.125857 100.002411 133.765947 99.721934 133.41227 99.433666 C 133.058593 99.14384 132.712706 98.846223 132.373052 98.540815 C 132.034955 98.235406 131.703091 97.920649 131.379017 97.5981 C 131.056501 97.275552 130.740217 96.94677 130.433281 96.60864 C 130.126346 96.270509 129.8272 95.926146 129.535845 95.573991 C 129.246048 95.220278 128.964042 94.861891 128.691383 94.495713 C 128.418725 94.129534 128.153856 93.757123 127.899894 93.376921 C 127.645932 92.998277 127.399761 92.6134 127.164495 92.222291 C 126.92923 91.831181 126.703313 91.433839 126.486744 91.031822 C 126.270176 90.629805 126.064513 90.221555 125.868199 89.810188 C 125.671885 89.397264 125.486477 88.979665 125.310418 88.558949 C 125.134358 88.136675 124.969205 87.711285 124.8134 87.282779 C 124.659153 86.852714 124.514255 86.419533 124.381821 85.983235 C 124.247828 85.545379 124.124743 85.105965 124.012563 84.663435 C 123.900384 84.220905 123.79911 83.775258 123.708744 83.328053 C 123.618377 82.880848 123.538916 82.430526 123.47192 81.978647 C 123.403366 81.528325 123.345718 81.074887 123.300535 80.619891 C 123.253793 80.166454 123.219516 79.709899 123.196146 79.254903 C 123.172775 78.798349 123.160311 78.341795 123.158752 77.885241 C 123.157194 77.428686 123.166543 76.972132 123.188355 76.515578 C 123.20861 76.060582 123.241329 75.604027 123.284954 75.15059 C 123.32858 74.695594 123.383111 74.242156 123.44855 73.790276 C 123.513988 73.338396 123.59189 72.888075 123.679141 72.439312 C 123.766391 71.992107 123.866107 71.54646 123.97517 71.102371 C 124.084233 70.659841 124.205761 70.218869 124.336637 69.781013 C 124.467513 69.344715 124.609296 68.909976 124.761984 68.479911 C 124.914673 68.049846 125.078268 67.622898 125.251212 67.200624 C 125.424155 66.778351 125.608005 66.359193 125.802761 65.946269 C 125.995959 65.533344 126.200063 65.125094 126.415074 64.721519 C 126.628527 64.317944 126.852886 63.919043 127.085035 63.527934 C 127.318742 63.135266 127.561798 62.748831 127.814202 62.36707 C 128.066606 61.986868 128.328358 61.612899 128.599458 61.245162 C 128.870559 60.877426 129.149449 60.515922 129.439246 60.16221 C 129.727485 59.808497 130.023515 59.462575 130.33045 59.122886 C 130.635828 58.783198 130.948995 58.4513 131.271512 58.127193 C 131.59247 57.803086 131.922776 57.48677 132.259314 57.179804 C 132.597411 56.871279 132.94174 56.572104 133.293859 56.280719 C 133.645978 55.990893 134.004329 55.708858 134.37047 55.434614 C 134.736612 55.161928 135.108985 54.897033 135.487591 54.641487 C 135.866197 54.387499 136.251035 54.141303 136.642105 53.904456 C 137.033175 53.669167 137.42892 53.441669 137.830896 53.225078 C 138.232873 53.008487 138.639523 52.802804 139.052406 52.604912 C 139.463731 52.408578 139.881288 52.221594 140.301961 52.045516 C 140.722634 51.869439 141.147982 51.702711 141.578003 51.548449 C 142.008024 51.392628 142.441162 51.247715 142.877415 51.113709 C 143.313669 50.978145 143.753039 50.855047 144.195525 50.742856 C 144.63801 50.630666 145.083612 50.527824 145.530772 50.437448 C 145.977932 50.347072 146.428208 50.266045 146.880042 50.197484 C 147.330318 50.128923 147.783711 50.07127 148.238661 50.024524 C 148.692053 49.977777 149.147003 49.941939 149.603511 49.918566 C 150.06002 49.893634 150.516528 49.881169 150.973036 49.87961 C 151.429544 49.876494 151.886052 49.885843 152.342561 49.907658 C 152.797511 49.927915 153.254019 49.959079 153.708969 50.002709 C 154.162361 50.04478 154.615754 50.099317 155.069146 50.163204 C 155.52098 50.228649 155.971256 50.305001 156.418416 50.39226 C 156.867134 50.47952 157.312736 50.577687 157.75678 50.686761 C 158.199265 50.795835 158.640193 50.915817 159.078005 51.046706 C 159.515816 51.177596 159.950512 51.317834 160.380533 51.470538 C 160.810555 51.621684 161.23746 51.783738 161.661249 51.956699 C 162.083481 52.129659 162.501038 52.313528 162.915478 52.506745 C 163.328361 52.699963 163.738128 52.904088 164.141663 53.117562 C 164.545197 53.331036 164.944058 53.553859 165.336686 53.786032 C 165.729314 54.019763 166.11571 54.261285 166.497432 54.513714 C 166.877596 54.766143 167.251528 55.026364 167.620785 55.297491 C 167.988485 55.567061 168.349952 55.847538 168.703629 56.134248 C 169.058864 56.422516 169.404751 56.720133 169.745964 57.023983 C 170.085618 57.329392 170.417482 57.642591 170.741557 57.963581 C 171.065631 58.28613 171.381915 58.614911 171.690408 58.951484 C 171.998902 59.288056 172.299605 59.63242 172.59096 59.984574 C 172.882315 60.336729 173.164322 60.695116 173.438539 61.059736 C 173.712755 61.425914 173.977623 61.796767 174.233143 62.175411 C 174.488663 62.554055 174.734835 62.938932 174.971659 63.330042 C 175.208482 63.719593 175.435957 64.115377 175.652526 64.517394 C 175.870653 64.919411 176.077873 65.326103 176.274187 65.737469 C 176.472059 66.150394 176.659025 66.566435 176.836643 66.98715 C 177.012702 67.407866 177.179413 67.833256 177.335218 68.261762 C 177.491023 68.691827 177.63748 69.125008 177.771472 69.561306 C 177.907022 69.997604 178.031666 70.437018 178.143845 70.879548 C 178.257583 71.32052 178.360414 71.766167 178.450781 72.213372 C 178.542706 72.660577 178.623724 73.110898 178.692279 73.56122 C 178.762391 74.013099 178.820039 74.466537 178.868338 74.919975 C 178.915079 75.374971 178.950915 75.829967 178.975843 76.284963 C 179.000772 76.741518 179.014795 77.198072 179.017911 77.654626 Z M 179.017911 77.808888 " stroke="#000000" stroke-width="0.745" stroke-opacity="1" stroke-miterlimit="4"/><path stroke-linecap="butt" transform="matrix(2.507143, 0, 0, 2.50689, 36.825008, -24.343473)" fill="none" stroke-linejoin="miter" d="M 185.723752 109.001049 C 185.128577 109.066494 182.669977 111.210585 179.983901 111.743491 C 176.074757 112.521036 171.687292 111.229283 171.866468 106.303795 " stroke="#000000" stroke-width="0.8" stroke-opacity="1" stroke-miterlimit="4"/><path stroke-linecap="butt" transform="matrix(2.507143, 0, 0, 2.50689, 36.825008, -24.343473)" fill-opacity="1" fill="#000000" fill-rule="nonzero" stroke-linejoin="miter" d="M 166.226332 89.830445 C 166.226332 90.048594 166.215425 90.266743 166.193613 90.484891 C 166.173358 90.701482 166.140639 90.918073 166.098572 91.131547 C 166.056504 91.346579 166.003531 91.558495 165.939651 91.767295 C 165.875771 91.976094 165.802543 92.181777 165.718408 92.384344 C 165.635831 92.585353 165.542348 92.783245 165.439517 92.976462 C 165.336686 93.168122 165.224506 93.356664 165.102979 93.537416 C 164.981451 93.719726 164.852133 93.895804 164.713467 94.06409 C 164.5748 94.232376 164.428344 94.394429 164.274097 94.55025 C 164.11985 94.704512 163.957813 94.850984 163.787986 94.989664 C 163.619716 95.128344 163.445215 95.259233 163.262923 95.380774 C 163.080632 95.502314 162.893666 95.614504 162.702026 95.717346 C 162.508828 95.820188 162.312514 95.91368 162.109967 95.997823 C 161.907421 96.081966 161.703317 96.155202 161.49298 96.219088 C 161.284202 96.282975 161.072307 96.335954 160.858854 96.379583 C 160.643844 96.421655 160.428833 96.454377 160.210706 96.476192 C 159.994137 96.498007 159.776011 96.508914 159.556326 96.508914 C 159.338199 96.508914 159.120072 96.499565 158.903503 96.47775 C 158.685377 96.455935 158.468808 96.424771 158.255355 96.3827 C 158.040344 96.340628 157.82845 96.287649 157.619671 96.225321 C 157.410893 96.161435 157.20523 96.088199 157.002684 96.005614 C 156.800138 95.921471 156.602266 95.827979 156.410626 95.726695 C 156.217428 95.623854 156.028904 95.511663 155.84817 95.390123 C 155.665878 95.270141 155.489819 95.139252 155.32155 95.00213 C 155.151722 94.863449 154.989685 94.716978 154.835438 94.562716 C 154.679634 94.408453 154.533177 94.2464 154.394511 94.078114 C 154.255844 93.909827 154.124968 93.735308 154.003441 93.552998 C 153.880355 93.372246 153.768175 93.185262 153.665344 92.992044 C 153.560955 92.800385 153.467472 92.602493 153.383337 92.401484 C 153.299203 92.198918 153.225974 91.993234 153.162094 91.784435 C 153.098214 91.575635 153.043683 91.363719 153.000057 91.150245 C 152.95799 90.935213 152.925271 90.72018 152.903458 90.502032 C 152.881646 90.285441 152.869181 90.067292 152.869181 89.849143 C 152.867623 89.629436 152.878529 89.411288 152.898784 89.194697 C 152.920597 88.976548 152.951758 88.761516 152.993825 88.546484 C 153.035892 88.331451 153.087308 88.119535 153.151188 87.910736 C 153.21351 87.701936 153.286738 87.496253 153.369315 87.293686 C 153.451891 87.091119 153.545374 86.893227 153.648205 86.70001 C 153.749479 86.508351 153.861658 86.319808 153.983186 86.137498 C 154.103156 85.955188 154.232474 85.780669 154.37114 85.610824 C 154.508248 85.44098 154.654705 85.278926 154.808952 85.124664 C 154.963198 84.968843 155.123677 84.822372 155.291947 84.682134 C 155.461774 84.543453 155.636275 84.412564 155.817009 84.291024 C 155.997743 84.167926 156.184709 84.055735 156.377907 83.951335 C 156.569547 83.848494 156.767419 83.753443 156.968407 83.6693 C 157.169395 83.585157 157.375058 83.510363 157.583836 83.446476 C 157.792615 83.38259 158.004509 83.328053 158.21952 83.284423 C 158.432973 83.240793 158.649541 83.208071 158.86611 83.186256 C 159.084237 83.164441 159.300806 83.151976 159.520491 83.151976 C 159.738617 83.150417 159.956744 83.159767 160.174871 83.181582 C 160.39144 83.201838 160.608009 83.233002 160.823019 83.273516 C 161.036472 83.315587 161.248366 83.368566 161.458703 83.430894 C 161.667482 83.493223 161.873144 83.566458 162.07569 83.649043 C 162.278237 83.731628 162.476109 83.823562 162.669307 83.926404 C 162.862505 84.027687 163.049471 84.139878 163.231762 84.25986 C 163.414054 84.379842 163.590114 84.509173 163.759941 84.647853 C 163.929768 84.784975 164.091805 84.931446 164.24761 85.085709 C 164.403415 85.238413 164.549871 85.400466 164.690096 85.568753 C 164.828762 85.737039 164.959638 85.911558 165.082724 86.09231 C 165.204252 86.273062 165.317989 86.460046 165.422379 86.651706 C 165.52521 86.844923 165.620251 87.041257 165.704385 87.242265 C 165.790078 87.444832 165.863306 87.648957 165.928744 87.857757 C 165.992624 88.066556 166.047156 88.278472 166.090782 88.491946 C 166.134407 88.706979 166.168684 88.922011 166.190497 89.14016 C 166.213867 89.356751 166.224774 89.574899 166.226332 89.793048 Z M 166.226332 89.830445 " stroke="#000000" stroke-width="0.8" stroke-opacity="1" stroke-miterlimit="4"/></svg>