<svg xmlns="http://www.w3.org/2000/svg" xmlns:xlink="http://www.w3.org/1999/xlink" width="800" zoomAndPan="magnify" viewBox="0 0 600 449.999984" height="600" preserveAspectRatio="xMidYMid meet" version="1.0"><path stroke-linecap="butt" transform="matrix(2.507143, 0, 0, 2.506906, 36.81976, -24.381843)" fill-opacity="1" fill="#ff6600" fill-rule="nonzero" stroke-linejoin="miter" d="M 139.127728 137.787741 C 139.127728 137.787741 123.693698 163.007138 90.7176 163.007138 C 89.729797 162.760943 99.514342 153.30737 101.497738 144.37735 C 103.495156 135.380329 100.181187 132.179795 100.181187 132.179795 C 100.181187 132.179795 109.654122 132.14084 112.224903 132.676859 L 123.890012 135.878951 L 133.665209 136.764006 Z M 139.127728 137.787741 " stroke="#000000" stroke-width="0.8" stroke-opacity="1" stroke-miterlimit="4"/><path stroke-linecap="butt" transform="matrix(2.507143, 0, 0, 2.506906, 36.81976, -24.381843)" fill-opacity="1" fill="#ff6600" fill-rule="nonzero" stroke-linejoin="miter" d="M 137.594608 52.666627 C 137.594608 52.666627 127.496895 34.529229 94.520796 34.529229 C 93.531436 34.776983 103.317539 44.228998 105.299377 53.159017 C 107.296795 62.156039 101.648869 71.012823 101.648869 71.012823 C 101.648869 71.012823 113.455761 65.397086 116.026541 64.859508 L 127.693209 61.657416 L 137.468406 60.772361 Z M 137.594608 52.666627 " stroke="#000000" stroke-width="0.8" stroke-opacity="1" stroke-miterlimit="4"/><path stroke-linecap="butt" transform="matrix(2.507143, 0, 0, 2.506906, 36.81976, -24.381843)" fill-opacity="1" fill="#ff9900" fill-rule="nonzero" stroke-linejoin="miter" d="M 25.527288 89.681566 L 38.58841 114.615813 L 24.044026 140.143733 C 24.044026 140.143733 46.009395 134.80068 51.055915 121.146211 C 56.100876 107.491742 99.735585 134.80068 111.905503 137.471427 C 118.985275 139.026506 145.246184 140.573795 166.270492 131.430303 C 181.391354 124.853159 187.274545 107.823638 187.894649 98.884269 C 189.080324 81.81891 175.131115 60.59161 148.712843 60.59161 C 137.966981 60.59161 115.230378 61.457967 100.053427 72.313917 C 77.919789 88.148301 61.98251 115.717457 51.94556 103.039977 C 35.026711 81.667765 25.527288 89.681566 25.527288 89.681566 Z M 25.527288 89.681566 " stroke="#000000" stroke-width="0.8" stroke-opacity="1" stroke-miterlimit="4"/><path stroke-linecap="butt" transform="matrix(2.507143, 0, 0, 2.506906, 36.81976, -24.381843)" fill-opacity="1" fill="#ffffff" fill-rule="nonzero" stroke-linejoin="miter" d="M 179.016888 77.808115 C 179.016888 78.264666 179.005981 78.721217 178.984169 79.177769 C 178.962356 79.63432 178.928079 80.089313 178.882896 80.544306 C 178.83927 80.997741 178.78318 81.451176 178.716184 81.903053 C 178.649188 82.35493 178.571286 82.805248 178.482477 83.25245 C 178.39211 83.701211 178.292395 84.145296 178.181774 84.589382 C 178.071152 85.03191 177.949624 85.471321 177.81719 85.909174 C 177.684756 86.345469 177.541416 86.780205 177.387169 87.210267 C 177.23448 87.640329 177.069327 88.065717 176.894826 88.487988 C 176.720324 88.910259 176.536474 89.327855 176.34016 89.740777 C 176.145404 90.153699 175.939742 90.560388 175.724731 90.963961 C 175.50972 91.365975 175.285361 91.763315 175.050096 92.15598 C 174.816389 92.547087 174.571775 92.93352 174.319371 93.31372 C 174.065409 93.69392 173.802099 94.066328 173.530999 94.434062 C 173.25834 94.800238 172.977891 95.160182 172.688094 95.513892 C 172.398297 95.867602 172.10071 96.213522 171.795333 96.55165 C 171.488397 96.889779 171.173671 97.221675 170.851155 97.544221 C 170.528639 97.866768 170.198333 98.183081 169.860236 98.490046 C 169.520582 98.79701 169.176253 99.094626 168.822576 99.38445 C 168.470457 99.674275 168.110548 99.956308 167.744406 100.228992 C 167.376707 100.500118 167.004333 100.763453 166.624169 101.017439 C 166.245563 101.271425 165.859167 101.516062 165.468097 101.751349 C 165.077027 101.986637 164.679725 102.212575 164.277748 102.427606 C 163.874213 102.644196 163.467563 102.849877 163.05468 103.044652 C 162.641797 103.240984 162.22424 103.42641 161.803567 103.600928 C 161.381336 103.777004 160.955988 103.940614 160.525967 104.094876 C 160.095946 104.249137 159.662808 104.394049 159.224996 104.526496 C 158.788743 104.658943 158.349373 104.78204 157.905329 104.892672 C 157.462844 105.004862 157.017242 105.104586 156.570082 105.194962 C 156.121364 105.285337 155.672646 105.363247 155.220812 105.430249 C 154.768977 105.49881 154.315585 105.554905 153.862193 105.600093 C 153.407243 105.64528 152.952293 105.679561 152.495785 105.702934 C 152.039276 105.726307 151.582768 105.737214 151.12626 105.738772 C 150.669752 105.738772 150.213243 105.727865 149.756735 105.70605 C 149.300227 105.684235 148.845277 105.651513 148.390327 105.607884 C 147.936934 105.564254 147.483542 105.508159 147.031708 105.442715 C 146.579874 105.375713 146.129598 105.297803 145.68088 105.210544 C 145.23372 105.121727 144.788118 105.022002 144.344074 104.91137 C 143.901589 104.802297 143.460661 104.680757 143.024407 104.548311 C 142.586596 104.417422 142.153458 104.274068 141.723437 104.121365 C 141.291857 103.968662 140.86651 103.805051 140.444279 103.630533 C 140.022048 103.456015 139.604491 103.272148 139.191608 103.077374 C 138.777167 102.882599 138.368958 102.678476 137.966981 102.463445 C 137.563447 102.249972 137.166144 102.025592 136.773516 101.791862 C 136.380888 101.556575 135.994492 101.313496 135.614328 101.061069 C 135.234164 100.807083 134.861791 100.545306 134.494091 100.27418 C 134.126392 100.003054 133.766482 99.722579 133.412805 99.432754 C 133.059128 99.144488 132.711684 98.846873 132.373587 98.541466 C 132.033932 98.234502 131.703626 97.921304 131.379552 97.598758 C 131.055478 97.276211 130.740752 96.945874 130.432258 96.607745 C 130.125323 96.271175 129.826178 95.925256 129.53638 95.573103 C 129.245025 95.220951 128.964577 94.861008 128.691918 94.494832 C 128.417702 94.128656 128.154391 93.756247 127.900429 93.377606 C 127.644909 92.997406 127.400296 92.612532 127.165031 92.221425 C 126.929765 91.830317 126.70229 91.434536 126.487279 91.030963 C 126.270711 90.628949 126.065048 90.22226 125.868734 89.809338 C 125.67242 89.397974 125.485454 88.980378 125.309395 88.558107 C 125.134893 88.137394 124.96974 87.712006 124.813935 87.281944 C 124.659688 86.851882 124.51479 86.418704 124.380798 85.982409 C 124.248364 85.546114 124.125278 85.106703 124.013098 84.664176 C 123.900919 84.221648 123.799646 83.776004 123.709279 83.327244 C 123.618912 82.880041 123.539451 82.431281 123.470897 81.979404 C 123.403901 81.527528 123.346253 81.074093 123.299512 80.620658 C 123.254329 80.165665 123.220051 79.710671 123.195123 79.25412 C 123.171752 78.799127 123.159288 78.342576 123.15773 77.886024 C 123.15773 77.429473 123.167078 76.972922 123.188891 76.51637 C 123.209145 76.059819 123.241864 75.604826 123.28549 75.149833 C 123.329115 74.69484 123.383647 74.241405 123.449085 73.789528 C 123.514523 73.337651 123.590867 72.887333 123.679676 72.44013 C 123.766927 71.99137 123.865084 71.545726 123.975705 71.103199 C 124.084768 70.659113 124.204738 70.218143 124.337172 69.781849 C 124.468048 69.343996 124.609831 68.910817 124.76252 68.479197 C 124.915208 68.049135 125.077245 67.622189 125.251747 67.199918 C 125.42469 66.777647 125.60854 66.360051 125.801738 65.947129 C 125.996494 65.532649 126.200598 65.124402 126.414051 64.720829 C 126.629062 64.317256 126.851863 63.919916 127.08557 63.527251 C 127.319277 63.134586 127.562333 62.748153 127.814737 62.367954 C 128.067141 61.987754 128.328893 61.612229 128.599993 61.244494 C 128.871094 60.87676 129.149984 60.516817 129.438223 60.163107 C 129.726462 59.809396 130.02405 59.461919 130.329427 59.122232 C 130.634805 58.782545 130.949531 58.45065 131.270489 58.128103 C 131.593005 57.803998 131.921753 57.487685 132.259849 57.179162 C 132.596388 56.872197 132.942275 56.571466 133.292836 56.281641 C 133.644955 55.990259 134.004864 55.708225 134.371005 55.433983 C 134.735589 55.161298 135.107962 54.896405 135.486568 54.642419 C 135.866732 54.386875 136.25157 54.14068 136.641082 53.905393 C 137.032152 53.668547 137.429455 53.442609 137.831431 53.226019 C 138.233408 53.00943 138.640058 52.80219 139.051383 52.605858 C 139.464266 52.407967 139.880265 52.222541 140.302496 52.044907 C 140.723169 51.868831 141.148517 51.703662 141.578538 51.547843 C 142.007001 51.392023 142.440139 51.247111 142.876393 51.113106 C 143.314204 50.979101 143.753574 50.856004 144.19606 50.742256 C 144.638546 50.630065 145.082589 50.528783 145.531307 50.436849 C 145.978467 50.346474 146.427185 50.267006 146.879019 50.198445 C 147.330853 50.128326 147.784246 50.070673 148.237638 50.023927 C 148.692588 49.97874 149.147538 49.942901 149.604046 49.91797 C 150.058997 49.894597 150.515505 49.880573 150.972013 49.879015 C 151.428521 49.877457 151.88503 49.886806 152.341538 49.907063 C 152.798046 49.927319 153.252996 49.958483 153.707946 50.002113 C 154.162897 50.044184 154.616289 50.098721 155.068123 50.164165 C 155.519957 50.229609 155.970233 50.304403 156.418951 50.391661 C 156.867669 50.47892 157.313271 50.577087 157.755757 50.68616 C 158.1998 50.795234 158.640728 50.915215 159.07854 51.046104 C 159.516352 51.176992 159.949489 51.318788 160.381069 51.469933 C 160.81109 51.622636 161.237995 51.784688 161.660226 51.957648 C 162.084016 52.130608 162.501573 52.312917 162.916014 52.506133 C 163.328896 52.699349 163.737105 52.903473 164.142198 53.116946 C 164.545732 53.330419 164.943035 53.553241 165.335663 53.78697 C 165.728291 54.019141 166.116245 54.26222 166.496409 54.514647 C 166.878131 54.765517 167.252063 55.027294 167.619762 55.296862 C 167.98902 55.567988 168.348929 55.846905 168.704164 56.135171 C 169.057841 56.423437 169.405286 56.719494 169.744941 57.024901 C 170.084595 57.330307 170.418018 57.643504 170.742092 57.964493 C 171.066166 58.285481 171.38245 58.61426 171.690943 58.952389 C 171.999437 59.288959 172.298582 59.63332 172.591495 59.983914 C 172.88285 60.336066 173.164857 60.694451 173.439074 61.060627 C 173.71329 61.425245 173.976601 61.797654 174.232121 62.176295 C 174.489199 62.554937 174.73537 62.938253 174.972194 63.32936 C 175.207459 63.720467 175.434934 64.116249 175.653061 64.518264 C 175.86963 64.91872 176.07685 65.325409 176.274722 65.738331 C 176.472594 66.149694 176.65956 66.565733 176.83562 66.986446 C 177.013237 67.408717 177.179948 67.832546 177.335753 68.262608 C 177.491558 68.691112 177.636457 69.12429 177.772007 69.560585 C 177.907557 69.99688 178.030643 70.436291 178.144381 70.878818 C 178.258118 71.321346 178.359391 71.765432 178.451316 72.214192 C 178.543241 72.661394 178.622701 73.110155 178.692814 73.562031 C 178.762926 74.013908 178.820574 74.465785 178.867315 74.920778 C 178.915615 75.374213 178.95145 75.829206 178.976378 76.285757 C 179.001307 76.742309 179.01533 77.197302 179.016888 77.655411 Z M 179.016888 77.808115 " stroke="#000000" stroke-width="0.745" stroke-opacity="1" stroke-miterlimit="4"/><path stroke-linecap="butt" transform="matrix(2.507143, 0, 0, 2.506906, 36.81976, -24.381843)" fill="none" stroke-linejoin="miter" d="M 185.724287 109.000076 C 185.127554 109.06552 182.668954 111.211155 179.984436 111.744058 C 176.075292 112.521598 171.686269 111.229854 171.867003 106.304397 " stroke="#000000" stroke-width="0.8" stroke-opacity="1" stroke-miterlimit="4"/><path stroke-linecap="butt" transform="matrix(2.507143, 0, 0, 2.506906, 36.81976, -24.381843)" fill-opacity="1" fill="#000000" fill-rule="nonzero" stroke-linejoin="miter" d="M 166.226867 89.829594 C 166.226867 90.0493 166.215961 90.267447 166.194148 90.484036 C 166.172335 90.702184 166.141174 90.917215 166.099107 91.132246 C 166.055482 91.345719 166.002508 91.557633 165.938628 91.76799 C 165.876306 91.976788 165.803078 92.18247 165.718943 92.383477 C 165.634808 92.586042 165.542884 92.783933 165.438494 92.975591 C 165.335663 93.168808 165.223484 93.355791 165.103514 93.5381 C 164.981986 93.720409 164.85111 93.894927 164.712444 94.06477 C 164.573777 94.233055 164.427321 94.395108 164.273074 94.549369 C 164.118827 94.70363 163.95679 94.851659 163.788521 94.990338 C 163.620252 95.129018 163.444192 95.258348 163.263458 95.379887 C 163.081167 95.501426 162.894201 95.613617 162.701003 95.718016 C 162.509363 95.820857 162.311491 95.914348 162.110502 95.998491 C 161.907956 96.081075 161.702294 96.155869 161.493515 96.219755 C 161.284737 96.283641 161.072842 96.336619 160.857831 96.378691 C 160.644379 96.42232 160.42781 96.455042 160.211241 96.475299 C 159.993114 96.497114 159.774988 96.508021 159.556861 96.509579 C 159.338734 96.509579 159.120607 96.498672 158.90248 96.478415 C 158.685912 96.4566 158.469343 96.425437 158.254332 96.383365 C 158.04088 96.339736 157.828985 96.288315 157.618648 96.224429 C 157.40987 96.162101 157.204207 96.088866 157.003219 96.004724 C 156.800673 95.922139 156.602801 95.828648 156.409603 95.725807 C 156.216405 95.622966 156.029439 95.510776 155.847147 95.390795 C 155.666413 95.269255 155.490354 95.139925 155.320527 95.001246 C 155.152257 94.862566 154.99022 94.716096 154.834416 94.561834 C 154.680169 94.409131 154.533712 94.247079 154.393488 94.078794 C 154.254821 93.908951 154.123945 93.734433 154.002418 93.553682 C 153.88089 93.371373 153.76871 93.18439 153.664321 92.992731 C 153.56149 92.799515 153.468007 92.603183 153.383872 92.400617 C 153.299738 92.19961 153.224951 91.993928 153.161071 91.78513 C 153.097191 91.576332 153.044218 91.364417 153.000592 91.149386 C 152.956967 90.935913 152.924248 90.719324 152.902435 90.502735 C 152.880623 90.284587 152.869716 90.06644 152.869716 89.848293 C 152.868158 89.630145 152.879065 89.411998 152.899319 89.19385 C 152.919574 88.977261 152.950735 88.760672 152.992802 88.547199 C 153.034869 88.332168 153.087843 88.120254 153.150165 87.911455 C 153.214045 87.701099 153.285715 87.495417 153.36985 87.292852 C 153.452426 87.091844 153.545909 86.893954 153.647182 86.700737 C 153.750014 86.507521 153.862193 86.320538 153.982163 86.138229 C 154.103691 85.95592 154.233009 85.779844 154.370117 85.61 C 154.508783 85.441715 154.65524 85.279663 154.809487 85.123843 C 154.962176 84.969582 155.124213 84.821553 155.292482 84.682874 C 155.460751 84.542636 155.635252 84.413306 155.817544 84.290209 C 155.998278 84.168669 156.185244 84.054921 156.376884 83.95208 C 156.570082 83.847681 156.766396 83.754189 156.968942 83.670047 C 157.16993 83.585904 157.375593 83.511111 157.584371 83.447225 C 157.79315 83.38178 158.005044 83.328802 158.218497 83.285172 C 158.433508 83.241543 158.648518 83.208821 158.866645 83.187006 C 159.083214 83.163633 159.301341 83.152726 159.519468 83.151168 C 159.739152 83.151168 159.957279 83.160517 160.173848 83.180773 C 160.391975 83.20103 160.608544 83.232194 160.821996 83.274265 C 161.037007 83.316336 161.248902 83.367757 161.45768 83.430085 C 161.668017 83.492412 161.873679 83.565648 162.076225 83.648232 C 162.278772 83.730816 162.476644 83.824308 162.669842 83.925591 C 162.86304 84.028432 163.050006 84.139064 163.232297 84.260603 C 163.414589 84.380584 163.590649 84.509914 163.760476 84.647035 C 163.930303 84.785715 164.09234 84.930627 164.248145 85.084888 C 164.402392 85.23915 164.550407 85.399644 164.689073 85.567929 C 164.829297 85.736214 164.960173 85.910732 165.081701 86.091483 C 165.204787 86.273792 165.318525 86.459217 165.421356 86.652433 C 165.525745 86.844091 165.620786 87.040424 165.704921 87.242989 C 165.789055 87.443997 165.863842 87.649678 165.92928 87.858477 C 165.99316 88.067275 166.047691 88.277631 166.091317 88.492662 C 166.134942 88.706135 166.167661 88.922724 166.191032 89.139314 C 166.212844 89.357461 166.225309 89.575608 166.226867 89.793756 Z M 166.226867 89.829594 " stroke="#000000" stroke-width="0.8" stroke-opacity="1" stroke-miterlimit="4"/></svg>